<svg xmlns="http://www.w3.org/2000/svg" width="720" height="180" viewBox="0 0 720 180" role="img" aria-label="GPAM logo">
  <defs>
    <linearGradient id="gpamBlue" x1="0%" y1="100%" x2="100%" y2="0%">
      <stop offset="0%" stop-color="#08256F"/>
      <stop offset="100%" stop-color="#16B5F4"/>
    </linearGradient>
    <style>
      .w{stroke:#fff;stroke-width:5.2;stroke-linecap:round;stroke-linejoin:round;fill:none}
      .n{fill:#fff}
      .t{font: 700 92px Inter, Arial, Helvetica, sans-serif; fill:#0A2E7A; letter-spacing:1px}
    </style>
    <clipPath id="headClip">
      <path d="M92 18
               C50 18 18 50 18 92
               c0 20 7 36 18 50
               c9 11 12 21 12 36
               v20
               h56
               c10 0 18 3 26 9
               c6 4 13 7 21 7
               h27
               v-45
               c0-8 3-12 9-16
               c15-10 23-26 23-43
               c0-14-5-26-13-37
               c-6-9-8-18-8-29
               C189 49 146 18 92 18z"/>
    </clipPath>
  </defs>

  <!-- icon -->
  <g transform="translate(18,0)">
    <path fill="url(#gpamBlue)" d="M92 18
             C50 18 18 50 18 92
             c0 20 7 36 18 50
             c9 11 12 21 12 36
             v20
             h56
             c10 0 18 3 26 9
             c6 4 13 7 21 7
             h27
             v-45
             c0-8 3-12 9-16
             c15-10 23-26 23-43
             c0-14-5-26-13-37
             c-6-9-8-18-8-29
             C189 49 146 18 92 18z"/>

    <g clip-path="url(#headClip)">
      <g transform="translate(14,-2) scale(1.08)">
        <!-- edges -->
        <path class="w" d="M48 48 L83 21 L131 22 L139 73 L74 73 L48 48"/>
        <path class="w" d="M74 73 L44 103 L80 127 L139 73"/>
        <path class="w" d="M80 127 L146 126 L139 73"/>
        <path class="w" d="M80 127 L78 167"/>
        <path class="w" d="M74 73 L80 127"/>
        <path class="w" d="M44 103 L74 73 L139 73 L167 70"/>
        <path class="w" d="M44 103 L80 127 L111 148"/>
        <path class="w" d="M131 22 L139 73 L167 70"/>
        <path class="w" d="M131 22 L83 21 L107 45 L139 73"/>
        <path class="w" d="M139 73 L149 102 L179 100"/>
        <path class="w" d="M149 102 L146 126 L179 126"/>
        <!-- nodes -->
        <circle class="n" cx="48" cy="48" r="9"/>
        <circle class="n" cx="83" cy="21" r="9"/>
        <circle class="n" cx="131" cy="22" r="8.5"/>
        <circle class="n" cx="107" cy="45" r="7"/>
        <circle class="n" cx="74" cy="73" r="11"/>
        <circle class="n" cx="139" cy="73" r="8.5"/>
        <circle class="n" cx="44" cy="103" r="12"/>
        <circle class="n" cx="80" cy="127" r="10"/>
        <circle class="n" cx="78" cy="167" r="7.5"/>
        <circle class="n" cx="111" cy="148" r="8.5"/>
        <circle class="n" cx="149" cy="102" r="8.5"/>
        <circle class="n" cx="146" cy="126" r="8.5"/>
        <circle class="n" cx="167" cy="70" r="7.5"/>
        <circle class="n" cx="179" cy="100" r="7.5"/>
        <circle class="n" cx="179" cy="126" r="8.5"/>
      </g>
    </g>
  </g>

  <!-- text -->
  <text class="t" x="255" y="112">GPAM</text>
</svg>
